<svg xmlns="http://www.w3.org/2000/svg" width="1200" height="760" viewBox="0 0 1200 760" role="img" aria-labelledby="title desc">
  <title id="title">Sample Pool Controller Panel Wiring</title>
  <desc id="desc">A sample panel showing mains feeding a 24 volt DIN power supply and contactors. The 24 volt supply powers the ESP32 controller and contactor coils. The controller connects to a Pentair pump over RS-485 and to optional sensors.</desc>
  <style>
    .title { font: 700 28px Arial, sans-serif; fill: #172a2c; }
    .subtitle { font: 16px Arial, sans-serif; fill: #53686b; }
    .zone { font: 700 14px Arial, sans-serif; letter-spacing: 1px; }
    .label { font: 700 16px Arial, sans-serif; fill: #172a2c; }
    .small { font: 14px Arial, sans-serif; fill: #53686b; }
    .tiny { font: 12px Arial, sans-serif; fill: #53686b; }
    .box { fill: #ffffff; stroke: #9aaeb0; stroke-width: 2; rx: 8; }
    .low-box { fill: #eef8f7; stroke: #4b9b98; stroke-width: 2; rx: 8; }
    .mains-box { fill: #fff5ef; stroke: #c66d42; stroke-width: 2; rx: 8; }
    .wire-low { fill: none; stroke: #227d89; stroke-width: 3; stroke-linecap: round; stroke-linejoin: round; }
    .wire-mains { fill: none; stroke: #be6036; stroke-width: 3; stroke-linecap: round; stroke-linejoin: round; }
    .wire-data { fill: none; stroke: #6877b6; stroke-width: 3; stroke-linecap: round; stroke-linejoin: round; stroke-dasharray: 7 6; }
    .wire-sensor { fill: none; stroke: #648543; stroke-width: 3; stroke-linecap: round; stroke-linejoin: round; }
  </style>
  <defs>
    <marker id="arrow-low" markerWidth="9" markerHeight="9" refX="8" refY="4.5" orient="auto"><path d="M0,0 L9,4.5 L0,9 Z" fill="#227d89"/></marker>
    <marker id="arrow-mains" markerWidth="9" markerHeight="9" refX="8" refY="4.5" orient="auto"><path d="M0,0 L9,4.5 L0,9 Z" fill="#be6036"/></marker>
    <marker id="arrow-data" markerWidth="9" markerHeight="9" refX="8" refY="4.5" orient="auto"><path d="M0,0 L9,4.5 L0,9 Z" fill="#6877b6"/></marker>
    <marker id="arrow-sensor" markerWidth="9" markerHeight="9" refX="8" refY="4.5" orient="auto"><path d="M0,0 L9,4.5 L0,9 Z" fill="#648543"/></marker>
  </defs>

  <rect width="1200" height="760" fill="#f8fbfb"/>
  <text x="52" y="52" class="title">Sample Pool Controller Panel</text>
  <text x="52" y="79" class="subtitle">A build layout, not a replacement for equipment wiring diagrams.</text>

  <rect x="38" y="105" width="770" height="590" rx="14" fill="#f3fbfa" stroke="#b6d7d5" stroke-width="2"/>
  <text x="62" y="136" class="zone" fill="#247e7b">INSIDE THE WEATHERPROOF ENCLOSURE</text>

  <rect x="62" y="168" width="190" height="94" class="mains-box"/>
  <text x="157" y="204" text-anchor="middle" class="label">Mains feed</text>
  <text x="157" y="227" text-anchor="middle" class="small">120 / 240 V AC</text>

  <rect x="328" y="168" width="210" height="94" class="mains-box"/>
  <text x="433" y="204" text-anchor="middle" class="label">24 V DIN supply</text>
  <text x="433" y="227" text-anchor="middle" class="small">powers the low-voltage side</text>
  <path d="M252 215 H328" class="wire-mains" marker-end="url(#arrow-mains)"/>

  <rect x="315" y="351" width="18" height="112" rx="4" fill="#202729"/>
  <rect x="533" y="351" width="18" height="112" rx="4" fill="#202729"/>
  <circle cx="324" cy="363" r="4" fill="#9da6a7"/>
  <circle cx="542" cy="363" r="4" fill="#9da6a7"/>
  <circle cx="324" cy="451" r="4" fill="#9da6a7"/>
  <circle cx="542" cy="451" r="4" fill="#9da6a7"/>
  <rect x="325" y="343" width="216" height="128" rx="5" fill="#202729" stroke="#111718" stroke-width="2"/>
  <rect x="339" y="351" width="54" height="13" rx="2" fill="#6ebe45"/>
  <rect x="398" y="351" width="35" height="13" rx="2" fill="#6ebe45"/>
  <rect x="438" y="351" width="89" height="13" rx="2" fill="#6ebe45"/>
  <line x1="357" y1="352" x2="357" y2="363" stroke="#1b4f2a" stroke-width="1"/>
  <line x1="375" y1="352" x2="375" y2="363" stroke="#1b4f2a" stroke-width="1"/>
  <line x1="415" y1="352" x2="415" y2="363" stroke="#1b4f2a" stroke-width="1"/>
  <line x1="456" y1="352" x2="456" y2="363" stroke="#1b4f2a" stroke-width="1"/>
  <line x1="474" y1="352" x2="474" y2="363" stroke="#1b4f2a" stroke-width="1"/>
  <line x1="492" y1="352" x2="492" y2="363" stroke="#1b4f2a" stroke-width="1"/>
  <line x1="510" y1="352" x2="510" y2="363" stroke="#1b4f2a" stroke-width="1"/>
  <rect x="351" y="373" width="164" height="11" rx="2" fill="#3a4547"/>
  <text x="433" y="403" text-anchor="middle" style="font:700 20px Arial,sans-serif;fill:#ffffff;letter-spacing:1px;">ESP32-S3 Relay-6CH</text>
  <text x="433" y="420" text-anchor="middle" style="font:12px Arial,sans-serif;fill:#a6d76c;">24 V POWER | RS-485 | SENSOR INPUTS</text>
  <text x="349" y="439" text-anchor="middle" class="tiny" fill="#ffffff">CH6</text>
  <text x="381" y="439" text-anchor="middle" class="tiny" fill="#ffffff">CH5</text>
  <text x="413" y="439" text-anchor="middle" class="tiny" fill="#ffffff">CH4</text>
  <text x="445" y="439" text-anchor="middle" class="tiny" fill="#ffffff">CH3</text>
  <text x="477" y="439" text-anchor="middle" class="tiny" fill="#ffffff">CH2</text>
  <text x="509" y="439" text-anchor="middle" class="tiny" fill="#ffffff">CH1</text>
  <rect x="335" y="445" width="196" height="16" rx="2" fill="#6ebe45"/>
  <line x1="367" y1="446" x2="367" y2="460" stroke="#1b4f2a" stroke-width="2"/>
  <line x1="399" y1="446" x2="399" y2="460" stroke="#1b4f2a" stroke-width="2"/>
  <line x1="431" y1="446" x2="431" y2="460" stroke="#1b4f2a" stroke-width="2"/>
  <line x1="463" y1="446" x2="463" y2="460" stroke="#1b4f2a" stroke-width="2"/>
  <line x1="495" y1="446" x2="495" y2="460" stroke="#1b4f2a" stroke-width="2"/>
  <text x="433" y="482" text-anchor="middle" class="tiny">6 relay terminals</text>
  <path d="M433 262 V343" class="wire-low" marker-end="url(#arrow-low)"/>
  <text x="446" y="302" class="tiny">24 V DC</text>

  <path d="M538 215 H585 V303" class="wire-mains"/>
  <path d="M585 303 H742" class="wire-mains"/>
  <text x="596" y="292" class="tiny">load feed</text>

  <rect x="610" y="332" width="142" height="66" class="box"/>
  <text x="681" y="360" text-anchor="middle" class="label">Contactor 1</text>
  <text x="681" y="382" text-anchor="middle" class="small">SWG</text>
  <rect x="610" y="425" width="142" height="66" class="box"/>
  <text x="681" y="453" text-anchor="middle" class="label">Contactor 2</text>
  <text x="681" y="475" text-anchor="middle" class="small">Pool heater</text>
  <rect x="610" y="518" width="142" height="66" class="box"/>
  <text x="681" y="546" text-anchor="middle" class="label">Contactor 3</text>
  <text x="681" y="568" text-anchor="middle" class="small">Landscape lights</text>

  <path d="M541 375 H575 V365 H610" class="wire-low" marker-end="url(#arrow-low)"/>
  <path d="M541 407 H575 V458 H610" class="wire-low" marker-end="url(#arrow-low)"/>
  <path d="M541 439 H575 V551 H610" class="wire-low" marker-end="url(#arrow-low)"/>
  <text x="554" y="337" class="tiny">24 V relay control</text>

  <path d="M752 365 H850" class="wire-mains" marker-end="url(#arrow-mains)"/>
  <path d="M752 458 H850" class="wire-mains" marker-end="url(#arrow-mains)"/>
  <path d="M752 551 H850" class="wire-mains" marker-end="url(#arrow-mains)"/>

  <rect x="890" y="332" width="250" height="66" class="mains-box"/>
  <text x="1015" y="371" text-anchor="middle" class="label">Saltwater generator</text>
  <rect x="890" y="425" width="250" height="66" class="mains-box"/>
  <text x="1015" y="464" text-anchor="middle" class="label">Pool heater</text>
  <rect x="890" y="518" width="250" height="66" class="mains-box"/>
  <text x="1015" y="557" text-anchor="middle" class="label">Landscape lights</text>

  <rect x="52" y="530" width="190" height="72" class="box"/>
  <text x="147" y="558" text-anchor="middle" class="label">Pentair pump</text>
  <text x="147" y="580" text-anchor="middle" class="small">RS-485 bus</text>
  <path d="M242 566 H285 V439 H325" class="wire-data" marker-end="url(#arrow-data)"/>

  <rect x="52" y="620" width="190" height="54" class="box"/>
  <text x="147" y="652" text-anchor="middle" class="label">Optional sensors</text>
  <path d="M242 647 H290 V456 H325" class="wire-sensor" marker-end="url(#arrow-sensor)"/>

  <rect x="38" y="712" width="1102" height="28" rx="6" fill="#e8f0f0"/>
  <line x1="62" y1="726" x2="92" y2="726" class="wire-mains"/><text x="101" y="731" class="tiny">mains / load wiring</text>
  <line x1="270" y1="726" x2="300" y2="726" class="wire-low"/><text x="309" y="731" class="tiny">24 V control wiring</text>
  <line x1="476" y1="726" x2="506" y2="726" class="wire-data"/><text x="515" y="731" class="tiny">RS-485</text>
  <line x1="632" y1="726" x2="662" y2="726" class="wire-sensor"/><text x="671" y="731" class="tiny">sensor wiring</text>
</svg>
